<svg width="27" height="32" viewBox="0 0 27 32" fill="none" xmlns="http://www.w3.org/2000/svg">
<path d="M22.5734 16.9109C22.5579 14.2879 23.7515 12.3111 26.1618 10.8534C24.8137 8.93042 22.7743 7.87277 20.0858 7.66893C17.5403 7.46894 14.7554 9.1458 13.7356 9.1458C12.6579 9.1458 10.1936 7.73816 8.25451 7.73816C4.25279 7.7997 0 10.915 0 17.2532C0 19.1262 0.343777 21.0607 1.03133 23.0529C1.95064 25.6759 5.26481 32.1026 8.72189 31.9988C10.5296 31.9564 11.8082 30.7219 14.1605 30.7219C16.4433 30.7219 17.6253 31.9988 19.6416 31.9988C23.1296 31.9488 26.127 26.1067 27 23.476C22.3223 21.2799 22.5734 17.0455 22.5734 16.9109ZM18.5137 5.18057C20.4721 2.86527 20.2944 0.757663 20.2365 0C18.506 0.0999961 16.5051 1.17303 15.3657 2.49221C14.1103 3.90754 13.3725 5.65747 13.5309 7.63047C15.4004 7.77277 17.1077 6.81512 18.5137 5.18057Z" fill="black"/>
</svg>
